<svg width="1382" height="581" viewBox="0 0 1382 581" fill="none" xmlns="http://www.w3.org/2000/svg">
<path d="M744.012 283.04H1031.2V222.574H786.248C776.971 246.988 762.648 267.089 744.012 283.04Z" fill="#FF343E"/>
<path d="M798.992 141.526C798.992 152.105 798.178 162.115 797.038 171.718H1031.25V111.252H796.957C798.178 120.936 798.992 130.946 798.992 141.526Z" fill="#FF343E"/>
<path d="M786.248 60.4658H1031.2V0H744.012C762.648 15.8692 776.971 36.0516 786.248 60.4658Z" fill="#FF343E"/>
<path d="M155.347 113.607C180.819 113.607 190.911 105.958 190.911 85.6939C190.911 67.0577 179.599 59.4079 155.347 59.4079H73.6411V113.607H155.347ZM0.886719 0H170.728C229.322 0 264.56 24.2514 264.56 71.1267C264.56 102.702 252.027 125.326 216.871 135.824C253.248 150.392 270.664 169.76 270.664 203.37C270.664 262.046 226.148 283.042 163.892 283.042H0.886719V0ZM158.928 223.227C186.028 222.82 196.526 213.95 196.526 193.686C196.526 174.317 186.842 164.552 158.928 164.552H73.6411V223.553L158.928 223.227Z" fill="#F2F4F8"/>
<path d="M391.76 0H317.785V283.042H391.76V0Z" fill="#F2F4F8"/>
<path d="M598.825 219.565C644.073 219.565 670.766 196.127 670.766 141.928C670.766 87.7284 644.073 63.4769 598.825 63.4769H531.686V219.565H598.825ZM457.711 0H603.708C692.25 0 746.043 51.7581 746.043 141.114C746.043 230.47 692.25 283.042 603.708 283.042H457.711V0Z" fill="#F2F4F8"/>
<path d="M1083.35 0H1162.12L1293.96 173.911H1295.59V0H1366.72V283.042H1291.11L1156.1 103.923H1154.47V283.042H1083.35V0Z" fill="#F2F4F8"/>
<path d="M0 344.158H62.1748V427.573H165.61V344.158H228.11V570.885H165.61V481.529H62.1748V570.885H0V344.158Z" fill="#F2F4F8"/>
<path d="M356.443 473.065H421.466L395.018 398.276H382.892L356.443 473.065ZM339.923 344.158H438.719L520.507 570.885H455.565L438.15 521.731H339.516L322.019 570.885H257.973L339.923 344.158Z" fill="#F2F4F8"/>
<path d="M672.598 458.824C696.768 458.824 705.313 445.314 705.313 427.085C705.313 409.019 696.768 395.835 672.598 395.835H612.621V458.824H672.598ZM550.527 344.158H679.027C738.598 344.158 767.651 372.235 767.651 424.4C767.651 461.102 752.107 485.761 722.078 496.991L777.173 570.966H705.964L662.019 508.954H612.702V570.966H550.527V344.158V344.158Z" fill="#F2F4F8"/>
<path d="M930.083 458.824C954.253 458.824 962.798 445.314 962.798 427.085C962.798 409.019 954.253 395.835 930.083 395.835H870.105V458.824H930.083ZM808.012 344.158H936.512C996.082 344.158 1025.14 372.235 1025.14 424.4C1025.14 461.102 1009.59 485.761 979.562 496.991L1034.66 570.966H963.449L919.503 508.954H870.187V570.966H808.012V344.158Z" fill="#F2F4F8"/>
<path d="M1128.33 341.801H1066.08V568.527H1128.33V341.801Z" fill="#F2F4F8"/>
<path d="M1173.35 558.518V499.842H1173.67C1209.81 518.56 1247.16 528.325 1279.06 528.325C1305.35 528.325 1318.69 521.408 1318.69 508.957C1318.69 496.343 1309.09 492.599 1259.37 484.542C1210.86 476.649 1172.45 462 1172.45 416.508C1172.45 375.574 1207.77 341.801 1279.96 341.801C1308.93 341.801 1340.02 348.393 1366.63 360.844V419.112L1366.3 419.194C1339.61 403.406 1304.45 393.478 1275.32 393.478C1247.4 393.478 1236.01 400.72 1236.01 412.439C1236.01 427.495 1255.79 428.959 1294.36 435.795C1342.95 444.178 1381.68 457.768 1381.68 506.19C1381.68 540.207 1358 580.002 1276.62 580.002C1236.09 580.002 1204.27 571.457 1173.35 558.518Z" fill="#F2F4F8"/>
</svg>
